<?xml version="1.0" standalone="no"?>
<!DOCTYPE svg PUBLIC "-//W3C//DTD SVG 20010904//EN"
 "http://www.w3.org/TR/2001/REC-SVG-20010904/DTD/svg10.dtd">
<svg version="1.0" xmlns="http://www.w3.org/2000/svg"
 width="1000.000000pt" height="1000.000000pt" viewBox="0 0 1000.000000 1000.000000"
 preserveAspectRatio="xMidYMid meet">
<metadata>
Created by potrace 1.11, written by Peter Selinger 2001-2013
</metadata>
<g transform="translate(0.000000,1000.000000) scale(0.100000,-0.100000)"
fill="#000000" stroke="none">
<path d="M5 9988 c-3 -7 -4 -2256 -3 -4998 l3 -4985 4995 0 4995 0 0 4995 0
4995 -4993 3 c-3989 2 -4994 0 -4997 -10z m5919 -1349 c181 -24 385 -107 489
-200 68 -60 164 -201 206 -303 61 -147 97 -406 88 -641 -10 -283 -66 -477
-229 -795 -89 -174 -148 -304 -148 -326 0 -2 312 -5 693 -6 683 -4 693 -4 765
-26 259 -79 486 -285 576 -520 112 -292 52 -673 -145 -922 l-41 -52 27 -91
c37 -123 46 -350 20 -478 -24 -120 -92 -276 -155 -356 -16 -21 -16 -27 -2 -85
11 -43 16 -107 16 -203 -1 -119 -5 -155 -27 -240 -41 -154 -116 -299 -206
-399 l-36 -39 -1 -136 c-3 -323 -96 -558 -292 -743 -108 -102 -190 -150 -347
-204 -195 -68 -298 -77 -846 -71 -503 4 -542 8 -891 78 -304 60 -425 95 -948
267 -513 170 -634 205 -768 221 -141 18 -219 67 -269 169 l-28 57 0 1495 0
1495 23 45 c49 94 111 141 227 169 46 12 98 33 129 54 115 77 322 304 635 697
231 290 367 454 468 561 164 176 225 330 318 799 42 207 60 274 110 391 63
146 167 284 245 324 63 33 169 37 344 14z m-2957 -2868 c61 -27 116 -84 147
-150 l21 -46 0 -1490 0 -1490 -23 -51 c-27 -60 -79 -113 -142 -146 l-45 -23
-699 -3 c-799 -3 -761 -7 -853 81 -36 34 -59 66 -73 104 -20 53 -20 72 -20
1527 0 1644 -5 1523 71 1610 47 53 91 82 145 95 22 5 332 9 729 8 l690 -2 52
-24z"/>
<path d="M2045 3498 c-123 -44 -208 -182 -190 -306 22 -150 130 -245 280 -246
113 -1 212 60 260 159 27 57 31 151 10 216 -24 70 -101 149 -169 172 -55 19
-145 21 -191 5z"/>
</g>
</svg>
